<?xml version="1.0" encoding="UTF-8" standalone="no"?>
<svg
   version="1.1"
   id="svg434"
   sodipodi:docname="analog.svg"
   inkscape:version="1.1.2 (b8e25be833, 2022-02-05)"
   xmlns:inkscape="http://www.inkscape.org/namespaces/inkscape"
   xmlns:sodipodi="http://sodipodi.sourceforge.net/DTD/sodipodi-0.dtd"
   xmlns="http://www.w3.org/2000/svg"
   xmlns:svg="http://www.w3.org/2000/svg"
   xmlns:s="https://github.com/nturley/netlistsvg">
  <defs
     id="defs438" />
  <sodipodi:namedview
     id="namedview436"
     pagecolor="#ffffff"
     bordercolor="#666666"
     borderopacity="1.0"
     inkscape:pageshadow="2"
     inkscape:pageopacity="0.0"
     inkscape:pagecheckerboard="0"
     showgrid="false"
     inkscape:zoom="8.5933333"
     inkscape:cx="172.92475"
     inkscape:cy="397.98293"
     inkscape:window-width="2560"
     inkscape:window-height="1502"
     inkscape:window-x="-10"
     inkscape:window-y="-10"
     inkscape:window-maximized="1"
     inkscape:current-layer="g354" />
  <s:properties
     constants="false"
     splitsAndJoins="false"
     genericsLaterals="true">
    <s:layoutEngine
       org.eclipse.elk.layered.spacing.nodeNodeBetweenLayers="28"
       org.eclipse.elk.layered.compaction.postCompaction.strategy="4"
       org.eclipse.elk.spacing.nodeNode="56"
       org.eclipse.elk.direction="RIGHT" />
  </s:properties>
  <style
     id="style2">
svg {
  stroke: #000;
  fill: none;
}
text {
  fill: #000;
  stroke: none;
  font-size: 10px;
  font-weight: bold;
  font-family: &quot;Courier New&quot;, monospace;
}
.nodelabel {
  text-anchor: middle;
}
.inputPortLabel {
  text-anchor: end;
}
.splitjoinBody {
  fill: #000;
}
.symbol {
  stroke-linejoin: round;
  stroke-linecap: round;
  stroke-width: 2;
}
.detail {
  stroke-linejoin: round;
  stroke-linecap: round;
  fill: #000;
}
</style>
  <!-- power -->
  <g
     s:type="vcc"
     s:width="20"
     s:height="30"
     transform="translate(5,20)"
     id="g10">
    <s:alias
       val="vcc" />
    <text
       x="10"
       y="-4"
       class="nodelabel $cell_id"
       s:attribute="name"
       id="text4">name</text>
    <path
       d="M0,0 H20 L10,15 Z M10,15 V30"
       class="$cell_id"
       id="path6" />
    <g
       s:x="10"
       s:y="30"
       s:pid="A"
       s:position="bottom"
       id="g8" />
  </g>
  <g
     s:type="vee"
     s:width="20"
     s:height="30"
     transform="translate(40,35)"
     id="g18">
    <s:alias
       val="vee" />
    <text
       x="10"
       y="10"
       class="nodelabel $cell_id"
       s:attribute="name"
       id="text12">name</text>
    <path
       d="M0,0 H20 L10,-15 Z M10,-15 V-30"
       class="$cell_id"
       id="path14" />
    <g
       s:x="10"
       s:y="-30"
       s:pid="A"
       s:position="top"
       id="g16" />
  </g>
  <g
     s:type="gnd"
     s:width="20"
     s:height="30"
     transform="translate(80,35)"
     id="g26">
    <s:alias
       val="gnd" />
    <text
       x="30"
       y="20"
       class="nodelabel $cell_id"
       s:attribute="name"
       id="text20">name</text>
    <path
       d="M0,0 H20 M3,5 H17 M7,10 H13 M10,0 V-15"
       class="$cell_id"
       id="path22" />
    <g
       s:x="10"
       s:y="-15"
       s:pid="A"
       s:position="top"
       id="g24" />
  </g>
  <!-- power -->
  <!-- signal -->
  <g
     s:type="inputExt"
     s:width="30"
     s:height="20"
     transform="translate(5,70)"
     id="g34">
    <text
       x="15"
       y="-4"
       class="$cell_id"
       s:attribute="ref"
       id="text28">input</text>
    <s:alias
       val="$_inputExt_" />
    <path
       d="M0,0 V20 H15 L30,10 15,0 Z"
       class="$cell_id"
       id="path30" />
    <g
       s:x="30"
       s:y="10"
       s:pid="Y"
       s:position="right"
       id="g32" />
  </g>
  <g
     s:type="outputExt"
     s:width="30"
     s:height="20"
     transform="translate(60,70)"
     id="g42">
    <text
       x="15"
       y="-4"
       class="$cell_id"
       s:attribute="ref"
       id="text36">output</text>
    <s:alias
       val="$_outputExt_" />
    <path
       d="M30,0 V20 H15 L0,10 15,0 Z"
       class="$cell_id"
       id="path38" />
    <g
       s:x="0"
       s:y="10"
       s:pid="A"
       s:position="left"
       id="g40" />
  </g>
  <!-- signal -->
  <!-- passives -->
  <g
     s:type="resistor_h"
     s:width="50"
     s:height="10"
     transform="translate(5,110)"
     id="g56">
    <s:alias
       val="r_h" />
    <text
       class="nodelabel $cell_id"
       x="25"
       y="-5"
       s:attribute="ref"
       id="text44">X1</text>
    <text
       class="nodelabel $cell_id"
       x="25"
       y="20"
       s:attribute="value"
       id="text46">Xk</text>
    <path
       d="M10,0 H40 V10 H10 Z"
       class="symbol $cell_id"
       id="path48" />
    <path
       d="M0,5 H10 M40,5 H50"
       class="connect $cell_id"
       id="path50" />
    <g
       s:x="0"
       s:y="5"
       s:pid="A"
       s:position="left"
       id="g52" />
    <g
       s:x="50"
       s:y="5"
       s:pid="B"
       s:position="right"
       id="g54" />
  </g>
  <g
     s:type="resistor_v"
     s:width="10"
     s:height="50"
     transform="translate(25,130)"
     id="g70">
    <s:alias
       val="r_v" />
    <text
       x="15"
       y="15"
       s:attribute="ref"
       class="$cell_id"
       id="text58">X1</text>
    <text
       x="15"
       y="30"
       s:attribute="value"
       class="$cell_id"
       id="text60">Xk</text>
    <path
       d="M0,10 V40 H10 V10 Z"
       class="symbol $cell_id"
       id="path62" />
    <path
       d="M5,0 V10 M5,40 V50"
       class="connect $cell_id"
       id="path64" />
    <g
       s:x="5"
       s:y="0"
       s:pid="A"
       s:position="top"
       id="g66" />
    <g
       s:x="5"
       s:y="50"
       s:pid="B"
       s:position="bottom"
       id="g68" />
  </g>
  <g
     s:type="capacitor_h"
     s:width="50"
     s:height="30"
     transform="translate(60,100)"
     id="g84">
    <s:alias
       val="c_h" />
    <text
       x="35"
       y="5"
       s:attribute="ref"
       class="$cell_id"
       id="text72">X1</text>
    <text
       x="35"
       y="30"
       s:attribute="value"
       class="$cell_id"
       id="text74">Xu</text>
    <path
       d="M20,0 V30 M30,0 V30"
       class="symbol $cell_id"
       id="path76" />
    <path
       d="M0,15 H20 M30,15 H50"
       class="connect $cell_id"
       id="path78" />
    <g
       s:x="0"
       s:y="15"
       s:pid="A"
       s:position="left"
       id="g80" />
    <g
       s:x="50"
       s:y="15"
       s:pid="B"
       s:position="right"
       id="g82" />
  </g>
  <g
     s:type="capacitor_v"
     s:width="30"
     s:height="50"
     transform="translate(70,130)"
     id="g98">
    <s:alias
       val="c_v" />
    <text
       x="25"
       y="10"
       s:attribute="ref"
       class="$cell_id"
       id="text86">X1</text>
    <text
       x="25"
       y="45"
       s:attribute="value"
       class="$cell_id"
       id="text88">Xu</text>
    <path
       d="M0,20 H30 M0,30 H30"
       class="symbol $cell_id"
       id="path90" />
    <path
       d="M15,0 V20 M15,30 V50"
       class="connect $cell_id"
       id="path92" />
    <g
       s:x="15"
       s:y="0"
       s:pid="A"
       s:position="top"
       id="g94" />
    <g
       s:x="15"
       s:y="50"
       s:pid="B"
       s:position="bottom"
       id="g96" />
  </g>
  <g
     s:type="inductor_h"
     s:width="50"
     s:height="10"
     transform="translate(115,110)"
     id="g112">
    <s:alias
       val="l_h" />
    <text
       class="nodelabel $cell_id"
       x="25"
       y="-5"
       s:attribute="ref"
       id="text100">X1</text>
    <text
       class="nodelabel $cell_id"
       x="25"
       y="20"
       s:attribute="value"
       id="text102">XpF</text>
    <path
       d="M5,5 A5,5 0 0 1 15,5 A5,5 0 0 1 25,5 A5,5 0 0 1 35,5 A5,5 0 0 1 45,5"
       class="$cell_id"
       id="path104" />
    <path
       d="M0,5 H5 M45,5 H50"
       class="connect $cell_id"
       id="path106" />
    <g
       s:x="0"
       s:y="5"
       s:pid="A"
       s:position="left"
       id="g108" />
    <g
       s:x="50"
       s:y="5"
       s:pid="B"
       s:position="right"
       id="g110" />
  </g>
  <g
     s:type="inductor_v"
     s:width="10"
     s:height="50"
     transform="translate(135,130)"
     id="g126">
    <s:alias
       val="l_v" />
    <text
       x="15"
       y="15"
       s:attribute="ref"
       class="$cell_id"
       id="text114">X1</text>
    <text
       x="15"
       y="35"
       s:attribute="value"
       class="$cell_id"
       id="text116">XpF</text>
    <path
       d="M5,5 A5,5 0 0 1 5,15 A5,5 0 0 1 5,25 A5,5 0 0 1 5,35 A5,5 0 0 1 5,45"
       class="$cell_id"
       id="path118" />
    <path
       d="M5,0 V5 M5,45 V50"
       class="connect $cell_id"
       id="path120" />
    <g
       s:x="5"
       s:y="0"
       s:pid="A"
       s:position="top"
       id="g122" />
    <g
       s:x="5"
       s:y="50"
       s:pid="B"
       s:position="bottom"
       id="g124" />
  </g>
  <!-- passives -->
  <!-- sources -->
  <g
     s:type="voltage_source"
     s:width="32"
     s:height="52"
     transform="translate(20,180)"
     id="g142">
    <s:alias
       val="v" />
    <text
       x="35"
       y="20"
       s:attribute="ref"
       class="$cell_id"
       id="text128">X1</text>
    <text
       x="35"
       y="35"
       s:attribute="value"
       class="$cell_id"
       id="text130">XV</text>
    <circle
       cx="16"
       cy="26"
       r="16"
       class="symbol $cell_id"
       id="circle132" />
    <path
       d="M16,10 V42"
       class="detail $cell_id"
       id="path134" />
    <path
       d="M16,0 V10 M16,42 V52"
       class="connect $cell_id"
       id="path136" />
    <g
       s:x="16"
       s:y="0"
       s:pid="+"
       s:position="top"
       id="g138" />
    <g
       s:x="16"
       s:y="52"
       s:pid="-"
       s:position="bottom"
       id="g140" />
  </g>
  <g
     s:type="current_source"
     s:width="32"
     s:height="52"
     transform="translate(75,180)"
     id="g158">
    <s:alias
       val="i" />
    <text
       x="35"
       y="20"
       s:attribute="ref"
       class="$cell_id"
       id="text144">X1</text>
    <text
       x="35"
       y="35"
       s:attribute="value"
       class="$cell_id"
       id="text146">XA</text>
    <circle
       cx="16"
       cy="26"
       r="16"
       class="symbol $cell_id"
       id="circle148" />
    <path
       d="M0,26 H32"
       class="detail $cell_id"
       id="path150" />
    <path
       d="M16,0 V10 M16,42 V52"
       class="connect $cell_id"
       id="path152" />
    <g
       s:x="16"
       s:y="0"
       s:pid="+"
       s:position="top"
       id="g154" />
    <g
       s:x="16"
       s:y="52"
       s:pid="-"
       s:position="bottom"
       id="g156" />
  </g>
  <!-- sources -->
  <!-- diodes -->
  <g
     s:type="diode_h"
     s:width="50"
     s:height="20"
     transform="translate(5,250)"
     id="g172">
    <s:alias
       val="d_h" />
    <text
       class="nodelabel $cell_id"
       x="25"
       y="-5"
       s:attribute="ref"
       id="text160">X1</text>
    <text
       class="nodelabel $cell_id"
       x="25"
       y="30"
       s:attribute="value"
       id="text162">XD</text>
    <path
       d="M15,0 V20 L35,10 Z M35,0 V20"
       class="symbol $cell_id"
       id="path164" />
    <path
       d="M0,10 H15 M35,10 H50"
       class="connect $cell_id"
       id="path166" />
    <g
       s:x="0"
       s:y="10"
       s:pid="+"
       s:position="left"
       id="g168" />
    <g
       s:x="50"
       s:y="10"
       s:pid="-"
       s:position="right"
       id="g170" />
  </g>
  <g
     s:type="diode_v"
     s:width="20"
     s:height="50"
     transform="translate(20,280)"
     id="g186">
    <s:alias
       val="d_v" />
    <text
       x="25"
       y="25"
       s:attribute="ref"
       class="$cell_id"
       id="text174">X1</text>
    <text
       x="25"
       y="42"
       s:attribute="value"
       class="$cell_id"
       id="text176">XD</text>
    <path
       d="M0,15 H20 L10,35 Z M0,35 H20"
       class="symbol $cell_id"
       id="path178" />
    <path
       d="M10,0 V15 M10,35 V50"
       class="connect $cell_id"
       id="path180" />
    <g
       s:x="10"
       s:y="0"
       s:pid="+"
       s:position="top"
       id="g182" />
    <g
       s:x="10"
       s:y="50"
       s:pid="-"
       s:position="bottom"
       id="g184" />
  </g>
  <g
     s:type="diode_schottky_h"
     s:width="50"
     s:height="20"
     transform="translate(60,250)"
     id="g202">
    <s:alias
       val="d_sk_h" />
    <text
       class="nodelabel $cell_id"
       x="25"
       y="-5"
       s:attribute="ref"
       id="text188">X1</text>
    <text
       class="nodelabel $cell_id"
       x="25"
       y="30"
       s:attribute="value"
       id="text190">XD</text>
    <path
       d="M15,0 V20 L35,10 Z M35,0 V20"
       class="symbol $cell_id"
       id="path192" />
    <path
       d="M0,10 H15 M35,10 H50"
       class="connect $cell_id"
       id="path194" />
    <!-- schottky -->
    <path
       d="M35,0 H40 M35,20 H30"
       class="symbol $cell_id"
       id="path196" />
    <g
       s:x="0"
       s:y="10"
       s:pid="+"
       s:position="left"
       id="g198" />
    <g
       s:x="50"
       s:y="10"
       s:pid="-"
       s:position="right"
       id="g200" />
  </g>
  <g
     s:type="diode_schottky_v"
     s:width="20"
     s:height="50"
     transform="translate(75,280)"
     id="g218">
    <s:alias
       val="d_sk_v" />
    <text
       x="25"
       y="25"
       s:attribute="ref"
       class="$cell_id"
       id="text204">X1</text>
    <text
       x="25"
       y="42"
       s:attribute="value"
       class="$cell_id"
       id="text206">XD</text>
    <path
       d="M0,15 H20 L10,35 Z M0,35 H20"
       class="symbol $cell_id"
       id="path208" />
    <path
       d="M10,0 V15 M10,35 V50"
       class="connect $cell_id"
       id="path210" />
    <!-- schottky -->
    <path
       d="M0,35 V40 M20,35 V30"
       class="symbol $cell_id"
       id="path212" />
    <g
       s:x="10"
       s:y="0"
       s:pid="+"
       s:position="top"
       id="g214" />
    <g
       s:x="10"
       s:y="50"
       s:pid="-"
       s:position="bottom"
       id="g216" />
  </g>
  <g
     s:type="diode_led_h"
     s:width="50"
     s:height="20"
     transform="translate(115,250)"
     id="g240">
    <s:alias
       val="d_led_h" />
    <text
       class="nodelabel $cell_id"
       x="10"
       y="-5"
       s:attribute="ref"
       id="text220">X1</text>
    <text
       class="nodelabel $cell_id"
       x="10"
       y="30"
       s:attribute="value"
       id="text222">XD</text>
    <path
       d="M15,0 V20 L35,10 Z M35,0 V20"
       class="symbol $cell_id"
       id="path224" />
    <path
       d="M0,10 H15 M35,10 H50"
       class="connect $cell_id"
       id="path226" />
    <!-- led -->
    <path
       d="m20,-5 7,-7"
       class="detail $cell_id"
       id="path228" />
    <path
       d="m24,-12 6,-3 -3,6 z"
       class="detail $cell_id"
       id="path230" />
    <path
       d="m25,0 7,-7"
       class="detail $cell_id"
       id="path232" />
    <path
       d="m29,-7 6,-3 -3,6 z"
       class="detail $cell_id"
       id="path234" />
    <g
       s:x="0"
       s:y="10"
       s:pid="+"
       s:position="top"
       id="g236" />
    <g
       s:x="50"
       s:y="10"
       s:pid="-"
       s:position="bottom"
       id="g238" />
  </g>
  <g
     s:type="diode_led_v"
     s:width="20"
     s:height="50"
     transform="translate(130,280)"
     id="g262">
    <s:alias
       val="d_led_v" />
    <text
       x="25"
       y="25"
       s:attribute="ref"
       class="$cell_id"
       id="text242">X1</text>
    <text
       x="25"
       y="42"
       s:attribute="value"
       class="$cell_id"
       id="text244">XD</text>
    <path
       d="M0,15 H20 L10,35 Z M0,35 H20"
       class="symbol $cell_id"
       id="path246" />
    <path
       d="M10,0 V15 M10,35 V50"
       class="connect $cell_id"
       id="path248" />
    <!-- led -->
    <path
       d="m-5,20 -7,7"
       class="detail $cell_id"
       id="path250" />
    <path
       d="m-12,24 -3,6 6,-3 z"
       class="detail $cell_id"
       id="path252" />
    <path
       d="m0,25 -7,7"
       class="detail $cell_id"
       id="path254" />
    <path
       d="m-7,29 -3,6 6,-3 z"
       class="detail $cell_id"
       id="path256" />
    <g
       s:x="10"
       s:y="0"
       s:pid="+"
       s:position="top"
       id="g258" />
    <g
       s:x="10"
       s:y="50"
       s:pid="-"
       s:position="bottom"
       id="g260" />
  </g>
  <!-- diodes -->
  <!-- transistors -->
  <g
     s:type="transistor_npn"
     s:width="32"
     s:height="32"
     transform="translate(15,350)"
     id="g284">
    <s:alias
       val="q_npn" />
    <text
       x="35"
       y="20"
       s:attribute="ref"
       class="$cell_id"
       id="text264">X1</text>
    <text
       x="35"
       y="32"
       s:attribute="value"
       class="$cell_id"
       id="text266">npn</text>
    <circle
       r="16"
       cx="16"
       cy="16"
       class="symbol $cell_id"
       id="circle268" />
    <path
       d="M0,16 H12 M12,6 V26"
       class="detail $cell_id"
       id="path270" />
    <path
       d="m12,10 11,-8"
       class="detail $cell_id"
       id="path272" />
    <path
       d="m12,21 11,8"
       class="detail $cell_id"
       id="path274" />
    <!-- npn -->
    <path
       d="m23,29 -6,-1 3,-5 z"
       style="fill:#000000"
       class="$cell_id"
       id="path276" />
    <g
       s:x="22"
       s:y="2"
       s:pid="C"
       s:position="top"
       id="g278" />
    <g
       s:x="0"
       s:y="16"
       s:pid="B"
       s:position="left"
       id="g280" />
    <g
       s:x="23"
       s:y="29"
       s:pid="E"
       s:position="bottom"
       id="g282" />
  </g>
  <g
     s:type="transistor_pnp"
     s:width="32"
     s:height="32"
     transform="translate(85,350)"
     id="g306">
    <s:alias
       val="q_pnp" />
    <text
       x="35"
       y="20"
       s:attribute="ref"
       class="$cell_id"
       id="text286">X1</text>
    <text
       x="35"
       y="32"
       s:attribute="value"
       class="$cell_id"
       id="text288">pnp</text>
    <circle
       r="16"
       cx="16"
       cy="16"
       class="symbol $cell_id"
       id="circle290" />
    <path
       d="M0,16 H12 M12,6 V26"
       class="detail $cell_id"
       id="path292" />
    <path
       d="m12,10 11,-8"
       class="detail $cell_id"
       id="path294" />
    <path
       d="m12,21 11,8"
       class="detail $cell_id"
       id="path296" />
    <!-- pnp -->
    <path
       d="m14,9 6,-1 -3,-5 z"
       style="fill:#000000"
       class="$cell_id"
       id="path298" />
    <g
       s:x="22"
       s:y="2"
       s:pid="C"
       s:position="top"
       id="g300" />
    <g
       s:x="0"
       s:y="16"
       s:pid="B"
       s:position="left"
       id="g302" />
    <g
       s:x="23"
       s:y="29"
       s:pid="E"
       s:position="bottom"
       id="g304" />
  </g>
  <g
     s:type="mosfet_nmos"
     s:width="40"
     s:height="50"
     transform="translate(130,340)"
     id="g330">
    <s:alias
       val="m_nmos" />
    <text
       x="24"
       y="-5"
       s:attribute="ref"
       class="$cell_id"
       id="text308">M1</text>
    <text
       x="24"
       y="62"
       s:attribute="value"
       class="$cell_id"
       id="text310">nmos</text>
    <path
       d="M0,25 H15 M15,10 V40"
       class="symbol $cell_id"
       id="path312"
       style="stroke-width:1.5;stroke-miterlimit:4;stroke-dasharray:none" />
    <path
       d="M20,10 H30 M30,10 V0 M20,40 H30 M30,40 V50"
       class="symbol $cell_id"
       id="path316"
       style="stroke-width:1.5;stroke-miterlimit:4;stroke-dasharray:none" />
    <path
       d="M 20,25 H 40"
       class="detail $cell_id"
       id="path318"
       sodipodi:nodetypes="cc" />
    <path
       d="m 25.527541,25 3,-1.5 v 3 z"
       class="detail $cell_id"
       id="path320" />
    <g
       s:x="30"
       s:y="0"
       s:pid="D"
       s:position="top"
       id="g322" />
    <g
       s:x="0"
       s:y="25"
       s:pid="G"
       s:position="left"
       id="g324" />
    <g
       s:x="30"
       s:y="50"
       s:pid="S"
       s:position="bottom"
       id="g326" />
    <g
       s:x="40"
       s:y="25"
       s:pid="B"
       s:position="right"
       id="g328" />
    <path
       style="fill:none;stroke:#000000;stroke-width:1.5;stroke-linecap:butt;stroke-linejoin:miter;stroke-opacity:1;stroke-miterlimit:4;stroke-dasharray:none"
       d="M 20,10 V 40"
       id="path1401" />
  </g>
  <g
     s:type="mosfet_pmos"
     s:width="40"
     s:height="50"
     transform="translate(180,340)"
     id="g354">
    <s:alias
       val="m_pmos" />
    <text
       x="24"
       y="-5"
       s:attribute="ref"
       class="$cell_id"
       id="text332">M1</text>
    <text
       x="24"
       y="62"
       s:attribute="value"
       class="$cell_id"
       id="text334">pmos</text>
    <path
       d="M0,25 H15 M15,10 V40"
       class="symbol $cell_id"
       id="path336"
       style="stroke-width:1.5;stroke-miterlimit:4;stroke-dasharray:none" />
    <path
       d="M 20,10 V 40"
       class="symbol $cell_id"
       id="path338"
       sodipodi:nodetypes="cc"
       style="stroke-width:1.5;stroke-miterlimit:4;stroke-dasharray:none" />
    <path
       d="M20,10 H30 M30,10 V0 M20,40 H30 M30,40 V50"
       class="symbol $cell_id"
       id="path340"
       style="stroke-width:1.5;stroke-miterlimit:4;stroke-dasharray:none" />
    <path
       d="M 20,25 H 40"
       class="detail $cell_id"
       id="path342"
       sodipodi:nodetypes="cc" />
    <path
       d="m 29.120248,25 -3,-1.5 v 3 z"
       class="detail $cell_id"
       id="path344" />
    <g
       s:x="30"
       s:y="50"
       s:pid="D"
       s:position="bottom"
       id="g346" />
    <g
       s:x="0"
       s:y="25"
       s:pid="G"
       s:position="left"
       id="g348" />
    <g
       s:x="30"
       s:y="0"
       s:pid="S"
       s:position="top"
       id="g350" />
    <g
       s:x="40"
       s:y="25"
       s:pid="B"
       s:position="right"
       id="g352" />
  </g>
  <!-- transistors -->
  <!-- builtin -->
  <g
     s:type="generic"
     s:width="30"
     s:height="40"
     transform="translate(150, 400)"
     id="g378">
    <text
       x="15"
       y="-4"
       class="nodelabel $cell_id"
       s:attribute="ref"
       id="text356">generic</text>
    <text
       x="15"
       y="52"
       class="nodelabel $cell_id"
       s:attribute="value"
       id="text358">value</text>
    <rect
       width="30"
       height="40"
       x="0"
       y="0"
       s:generic="body"
       class="$cell_id"
       id="rect360" />
    <g
       transform="translate(30,10)"
       s:x="30"
       s:y="10"
       s:pid="out0"
       s:position="right"
       id="g364">
      <text
         x="5"
         y="-4"
         class="$cell_id"
         id="text362">out0</text>
    </g>
    <g
       transform="translate(30,30)"
       s:x="30"
       s:y="30"
       s:pid="out1"
       s:position="right"
       id="g368">
      <text
         x="5"
         y="-4"
         class="$cell_id"
         id="text366">out1</text>
    </g>
    <g
       transform="translate(0,10)"
       s:x="0"
       s:y="10"
       s:pid="in0"
       s:position="left"
       id="g372">
      <text
         x="-3"
         y="-4"
         class="inputPortLabel $cell_id"
         id="text370">in0</text>
    </g>
    <g
       transform="translate(0,30)"
       s:x="0"
       s:y="30"
       s:pid="in1"
       s:position="left"
       id="g376">
      <text
         x="-3"
         y="-4"
         class="inputPortLabel $cell_id"
         id="text374">in1</text>
    </g>
  </g>
  <!-- builtin -->
  <!-- misc -->
  <g
     s:type="opamp"
     s:width="60"
     s:height="40"
     transform="translate(20,450)"
     id="g400">
    <s:alias
       val="op" />
    <text
       x="40"
       y="35"
       s:attribute="ref"
       class="$cell_id"
       id="text380">X1</text>
    <path
       d="M10,0 V40 L50,20 Z"
       class="symbol $cell_id"
       id="path382" />
    <path
       d="M0,10 H10 M0,30 H10 M50,20 H60 M30,0 V10 M30,40 V30"
       class="connect $cell_id"
       id="path384" />
    <path
       d="m15,10 5,0 m-2.5,-2.5 0,5"
       class="detail $cell_id"
       id="path386" />
    <path
       d="m15,30 5,0"
       class="detail $cell_id"
       id="path388" />
    <g
       s:x="0"
       s:y="10"
       s:pid="+"
       s:position="left"
       id="g390" />
    <g
       s:x="0"
       s:y="30"
       s:pid="-"
       s:position="left"
       id="g392" />
    <g
       s:x="60"
       s:y="20"
       s:pid="OUT"
       s:position="right"
       id="g394" />
    <g
       s:x="30"
       s:y="0"
       s:pid="VCC"
       s:position="top"
       id="g396" />
    <g
       s:x="30"
       s:y="40"
       s:pid="VEE"
       s:position="bottom"
       id="g398" />
  </g>
  <g
     s:type="xtal"
     s:width="40"
     s:height="30"
     transform="translate(90,450)"
     id="g412">
    <s:alias
       val="xtal" />
    <text
       class="nodelabel $cell_id"
       x="20"
       y="45"
       s:attribute="ref"
       id="text402">X1</text>
    <rect
       x="15"
       y="0"
       width="10"
       height="30"
       class="symbol $cell_id"
       id="rect404" />
    <path
       d="M0,15 H10 M10,5 V25 M30,5 V25 M30,15 H40"
       class="$cell_id"
       id="path406" />
    <g
       s:x="0"
       s:y="15"
       s:pid="A"
       s:position="left"
       id="g408" />
    <g
       s:x="40"
       s:y="15"
       s:pid="B"
       s:position="right"
       id="g410" />
  </g>
  <g
     s:type="transformer_1p_1s"
     s:width="35"
     s:height="45"
     transform="translate(140,450)"
     id="g432">
    <s:alias
       val="transformer_1p_1s" />
    <text
       class="nodelabel $cell_id"
       x="25"
       y="55"
       s:attribute="ref"
       id="text414">X1</text>
    <path
       d="M10,0 A5,5 0 0 1 10,10 A5,5 0 0 1 10,20 A5,5 0 0 1 10,30 A5,5 0 0 1 10,40"
       class="$cell_id"
       id="path416" />
    <path
       d="M35,0 A5,5 0 0 0 35,10 A5,5 0 0 0 35,20 A5,5 0 0 0 35,30 A5,5 0 0 0 35,40"
       class="$cell_id"
       id="path418" />
    <path
       d="M20,0 V40 M25,0 V40"
       class="symbol $cell_id"
       id="path420" />
    <path
       d="M0,0 H10 M0,40 H10 M35,0 H45 M35,40 H45"
       class="connect $cell_id"
       id="path422" />
    <g
       s:x="0"
       s:y="0"
       s:pid="L1.1"
       s:position="left"
       id="g424" />
    <g
       s:x="0"
       s:y="40"
       s:pid="L1.2"
       s:position="left"
       id="g426" />
    <g
       s:x="40"
       s:y="0"
       s:pid="L2.1"
       s:position="right"
       id="g428" />
    <g
       s:x="40"
       s:y="40"
       s:pid="L2.2"
       s:position="right"
       id="g430" />
  </g>
  <!-- misc -->
</svg>
